<svg width="116" height="116" viewBox="0 0 116 116" fill="none" xmlns="http://www.w3.org/2000/svg"><g clip-path="url(#clip0_1262_1743)"><path d="M103.312 15.225C102.066 14.4186 100.641 13.9308 99.1617 13.8044C97.6826 13.678 96.1951 13.9168 94.83 14.5L50.0975 32.1175C49.0385 32.5485 47.9059 32.7701 46.7625 32.77H18.125C15.7215 32.77 13.4164 33.7248 11.7168 35.4243C10.0173 37.1239 9.0625 39.4289 9.0625 41.8325V42.5575H0V64.3075H9.0625V65.25C9.11929 67.6156 10.0991 69.8652 11.7925 71.518C13.486 73.1708 15.7587 74.0956 18.125 74.095L29 97.15C29.7364 98.7025 30.8957 100.016 32.3449 100.939C33.794 101.863 35.4742 102.358 37.1925 102.37H41.76C44.1509 102.351 46.4374 101.388 48.1213 99.6901C49.8052 97.9926 50.7501 95.6985 50.75 93.3075V74.965L94.83 92.5825C95.9142 93.0139 97.0706 93.2354 98.2375 93.235C100.048 93.2058 101.811 92.6517 103.312 91.64C104.505 90.8348 105.489 89.7573 106.182 88.4966C106.875 87.2359 107.259 85.8282 107.3 84.39V22.6925C107.293 21.2172 106.927 19.7659 106.232 18.4645C105.537 17.1631 104.535 16.0511 103.312 15.225ZM41.6875 41.8325V65.25H18.125V41.8325H41.6875ZM41.6875 93.3075H37.12L28.2025 74.095H41.6875V93.3075ZM53.4325 66.3375C52.5717 65.8976 51.6741 65.5337 50.75 65.25V41.325C51.6653 41.1361 52.5627 40.8693 53.4325 40.5275L98.2375 22.6925V84.1725L53.4325 66.3375ZM107.517 44.37V62.495C109.921 62.495 112.226 61.5402 113.926 59.8406C115.625 58.1411 116.58 55.836 116.58 53.4325C116.58 51.0289 115.625 48.7239 113.926 47.0243C112.226 45.3248 109.921 44.37 107.517 44.37Z" fill="#252525"></path></g><defs><clipPath id="clip0_1262_1743"><rect width="116" height="116" fill="white"></rect></clipPath></defs></svg>