<svg width="116" height="116" viewBox="0 0 116 116" fill="none" xmlns="http://www.w3.org/2000/svg"><path d="M54.375 25.3751C50.315 25.3751 46.5232 26.4843 43.2825 28.4201C42.9331 24.7022 41.7431 21.1124 39.8025 17.9221C44.5027 15.5746 49.7004 14.3971 54.9534 14.4895C60.2064 14.5819 65.3594 15.9416 69.9742 18.4529C74.589 20.9642 78.529 24.5529 81.4591 28.9137C84.3893 33.2745 86.223 38.2785 86.8042 43.5001H96.0698C103.073 43.5001 108.757 49.1841 108.757 56.1876V88.8126C108.757 90.4793 108.429 92.1297 107.791 93.6695C107.153 95.2093 106.218 96.6083 105.039 97.7865C103.86 98.9648 102.46 99.8992 100.92 100.536C99.3799 101.174 97.7293 101.501 96.0625 101.5H63.4375C60.0726 101.5 56.8455 100.163 54.4661 97.784C52.0867 95.4046 50.75 92.1775 50.75 88.8126V79.5543C48.2366 79.2755 45.7645 78.7037 43.384 77.8506C43.4565 76.1396 43.5 74.3561 43.5 72.5001V71.9201C43.5 70.1801 43.5 68.1283 43.4275 65.9243C45.6869 67.2476 48.1681 68.1492 50.75 68.5851V56.1876C50.75 49.1841 56.434 43.5001 63.4375 43.5001H75.8277C74.9709 38.4308 72.346 33.829 68.4189 30.511C64.4917 27.193 59.5162 25.3734 54.375 25.3751ZM86.1953 54.3751C84.8252 60.3669 81.793 65.8507 77.4468 70.1969C73.1007 74.5431 67.6168 77.5753 61.625 78.9453V88.8126C61.625 89.8131 62.437 90.6251 63.4375 90.6251H96.0625C96.5432 90.6251 97.0042 90.4341 97.3441 90.0942C97.684 89.7543 97.875 89.2933 97.875 88.8126V56.1876C97.875 55.7069 97.684 55.2458 97.3441 54.9059C97.0042 54.566 96.5432 54.3751 96.0625 54.3751H86.1953ZM74.8853 54.3751H63.4375C62.9568 54.3751 62.4958 54.566 62.1559 54.9059C61.816 55.2458 61.625 55.7069 61.625 56.1876V67.6426C64.6845 66.5579 67.4632 64.804 69.7586 62.5086C72.0539 60.2133 73.8078 57.4346 74.8925 54.3751H74.8853ZM25.9622 8.15633C26.564 8.68269 26.9749 9.39323 27.1309 10.1774C27.287 10.9615 27.1794 11.7752 26.825 12.4918C26.7636 12.7039 26.7319 12.9235 26.7308 13.1443C26.7308 13.6011 26.8468 14.4711 27.9415 15.5586C28.4708 16.0878 28.8768 16.4648 29.319 16.8781C29.6815 17.2116 30.0658 17.5596 30.5515 18.0381C31.494 18.9371 32.4873 19.9956 33.379 21.3223C35.2278 24.0991 36.25 27.5718 36.25 32.6251C36.25 38.6571 34.075 43.8118 30.653 47.0671C32.77 49.2131 34.0025 52.0188 34.7638 54.8246C36.25 60.2766 36.25 67.0191 36.25 72.2318V72.5001C36.25 87.4206 33.4587 96.2801 30.2977 101.551C29.1036 103.626 27.5353 105.462 25.6722 106.967C24.9344 107.542 24.1314 108.029 23.2797 108.417C23.2797 108.417 22.359 108.75 21.75 108.75C21.2274 108.709 20.7127 108.596 20.2203 108.417C19.3686 108.029 18.5656 107.542 17.8278 106.967C15.9647 105.462 14.3964 103.626 13.2023 101.551C10.0412 96.2873 7.25 87.4206 7.25 72.5001V72.2391C7.25 67.0191 7.25 60.2838 8.73625 54.8173C9.4975 52.0188 10.73 49.2131 12.847 47.0598C9.425 43.8191 7.25 38.6571 7.25 32.6251C7.25 30.2616 7.88075 27.4413 8.75075 24.8386C9.62075 22.2286 10.8388 19.5316 12.2453 17.3566C13.92 14.5291 16.2762 12.1583 18.1032 10.5633C19.1049 9.68242 20.1502 8.85246 21.2352 8.07658L21.4528 7.93158L21.518 7.88083L21.5398 7.86633L21.5543 7.85908C22.219 7.41593 23.0116 7.20483 23.8088 7.25858C24.6059 7.31234 25.363 7.62794 25.9622 8.15633Z" fill="#252525"></path></svg>